<?xml version="1.0" encoding="UTF-8" standalone="no"?>
<!DOCTYPE svg PUBLIC "-//W3C//DTD SVG 1.1//EN" "http://www.w3.org/Graphics/SVG/1.1/DTD/svg11.dtd">
<svg width="100%" height="100%" viewBox="0 0 32 32" version="1.1" xmlns="http://www.w3.org/2000/svg" xmlns:xlink="http://www.w3.org/1999/xlink" xml:space="preserve" xmlns:serif="http://www.serif.com/" title="task icon" style="fill-rule:evenodd;clip-rule:evenodd;stroke-linejoin:round;stroke-miterlimit:1.41421;">
    <g transform="matrix(1,0,0,1,-724,-108)">
        <path d="M738.314,136.816L732.268,136.829C729.519,136.829 727.288,134.597 727.288,131.848L727.288,115.952C727.288,113.203 729.519,110.971 732.268,110.971L750.179,110.971C750.879,110.971 751.737,111.146 751.947,111.364C751.964,111.377 751.981,111.39 751.997,111.404C752.51,111.822 752.586,112.579 752.168,113.091L739.689,128.369C739.27,128.882 738.514,128.958 738.001,128.54C737.918,128.471 733.994,124.609 733.994,124.609C733.52,124.134 733.52,123.363 733.994,122.888C734.469,122.414 735.24,122.414 735.715,122.888L738.661,125.835L749.188,112.947L732.125,112.947C730.461,112.947 729.11,114.298 729.11,115.962L729.11,131.88C729.11,133.544 730.461,134.895 732.125,134.895L738.314,134.879C738.849,134.879 739.283,135.313 739.283,135.848C739.283,136.382 738.849,136.816 738.314,136.816Z"/>
    </g>
</svg>
